<?xml version="1.0" encoding="UTF-8"?>
<!DOCTYPE svg PUBLIC "-//W3C//DTD SVG 1.1//EN" "http://www.w3.org/Graphics/SVG/1.1/DTD/svg11.dtd">
<svg xmlns="http://www.w3.org/2000/svg" version="1.1" width="534px" height="534px" style="shape-rendering:geometricPrecision; text-rendering:geometricPrecision; image-rendering:optimizeQuality; fill-rule:evenodd; clip-rule:evenodd" xmlns:xlink="http://www.w3.org/1999/xlink">
<g><path style="opacity:0.992" fill="#fdd1ae" d="M 518.5,115.5 C 510.907,115.052 503.574,116.219 496.5,119C 482.231,127.606 468.231,136.606 454.5,146C 448.273,147.927 441.94,149.427 435.5,150.5C 429.777,141.05 425.11,131.05 421.5,120.5C 424.075,121.568 426.242,123.235 428,125.5C 431.375,131.085 434.875,136.585 438.5,142C 449.333,143.833 453.833,139.333 452,128.5C 445.735,101.939 428.902,88.6052 401.5,88.5C 396.734,86.8023 392.401,87.4689 388.5,90.5C 372.125,95.9412 357.625,104.608 345,116.5C 343.061,128.227 347.895,132.727 359.5,130C 370.692,124.215 382.359,119.715 394.5,116.5C 398.886,128.273 403.553,139.94 408.5,151.5C 360.978,134.75 322.145,146.417 292,186.5C 277.123,210.09 273.289,235.423 280.5,262.5C 245.929,257.217 217.096,267.551 194,293.5C 184.775,307.298 182.108,322.298 186,338.5C 188.08,344.332 190.913,349.665 194.5,354.5C 181.605,350.553 168.438,347.553 155,345.5C 139.932,349.643 135.598,358.976 142,373.5C 143.357,376.898 145.19,379.898 147.5,382.5C 161.331,406.657 181.331,423.657 207.5,433.5C 242.526,445.456 277.526,445.456 312.5,433.5C 332.603,427.031 349.436,415.698 363,399.5C 367.176,393.804 371.343,388.137 375.5,382.5C 381.085,374.313 382.918,365.313 381,355.5C 377.591,348.712 372.091,345.379 364.5,345.5C 353.886,347.821 343.219,349.821 332.5,351.5C 338.363,344.243 341.03,335.91 340.5,326.5C 388.716,338.122 425.883,323.122 452,281.5C 455.204,274.213 458.204,266.88 461,259.5C 462.356,258.62 463.856,258.286 465.5,258.5C 469.167,258.5 472.833,258.5 476.5,258.5C 476.5,260.5 476.5,262.5 476.5,264.5C 474.033,267.562 471.2,270.562 468,273.5C 467.133,277.956 467.466,282.289 469,286.5C 471.333,288.5 473.667,290.5 476,292.5C 476.814,294.902 476.647,297.235 475.5,299.5C 466.468,305.572 465.135,313.072 471.5,322C 476.383,323.502 477.716,326.669 475.5,331.5C 467.512,335.7 465.346,342.034 469,350.5C 471.333,352.5 473.667,354.5 476,356.5C 476.814,358.902 476.647,361.235 475.5,363.5C 468.123,366.928 465.623,372.594 468,380.5C 470,383.833 472.667,386.5 476,388.5C 476.814,390.902 476.647,393.235 475.5,395.5C 468.203,399.089 465.537,404.756 467.5,412.5C 444.485,440.184 415.818,459.684 381.5,471C 306.714,490.464 231.714,491.464 156.5,474C 66.1092,445.743 23.2759,384.243 28,289.5C 30.0071,265.624 35.5071,242.624 44.5,220.5C 64.5947,221.747 82.0947,215.747 97,202.5C 103.697,193.647 110.53,184.98 117.5,176.5C 114.564,183.908 113.397,191.575 114,199.5C 114.965,203.802 117.632,205.802 122,205.5C 124.3,205.506 126.466,205.006 128.5,204C 133.034,197.728 137.2,191.228 141,184.5C 143.383,181.727 146.217,179.561 149.5,178C 156.5,177.333 163.5,177.333 170.5,178C 181.408,180.405 192.408,182.238 203.5,183.5C 209.893,182.981 215.726,180.981 221,177.5C 223.318,171.456 221.818,166.622 216.5,163C 209.488,162.066 202.488,161.066 195.5,160C 181.38,154.135 166.713,151.135 151.5,151C 141.895,152.249 133.562,156.082 126.5,162.5C 135.994,144.829 143.827,126.496 150,107.5C 150.667,102.5 150.667,97.5 150,92.5C 148.751,85.9037 144.917,83.4037 138.5,85C 133.289,88.9131 129.123,93.7464 126,99.5C 119.667,114.167 113.333,128.833 107,143.5C 106.583,144.756 105.75,145.423 104.5,145.5C 99.1053,144.654 93.7719,143.488 88.5,142C 73.5091,133.005 57.8424,125.338 41.5,119C 32.7026,116.856 24.0359,117.022 15.5,119.5C 15.8257,116.689 16.6591,114.022 18,111.5C 40.5964,86.8833 66.0964,66.0499 94.5,49C 110.956,42.4601 125.956,44.7934 139.5,56C 146.196,63.8955 152.529,72.0621 158.5,80.5C 201.549,63.3675 246.215,56.8675 292.5,61C 322.581,62.8746 352.081,68.0413 381,76.5C 382.261,76.2409 383.261,75.5742 384,74.5C 395.874,50.6292 415.04,41.4626 441.5,47C 447.468,48.1506 453.134,50.1506 458.5,53C 478.51,68.4422 497.01,85.6089 514,104.5C 516.066,107.961 517.566,111.627 518.5,115.5 Z"/></g>
<g><path style="opacity:0.992" fill="#fea6a8" d="M 126.5,162.5 C 122.989,166.86 119.989,171.527 117.5,176.5C 110.53,184.98 103.697,193.647 97,202.5C 82.0947,215.747 64.5947,221.747 44.5,220.5C 48.2682,210.293 52.6015,200.293 57.5,190.5C 43.5538,170.275 30.8871,149.275 19.5,127.5C 26.1799,129.56 32.8466,131.726 39.5,134C 54.7777,142.472 70.4444,150.139 86.5,157C 93.2191,157.589 99.5524,156.256 105.5,153C 106.954,150.216 106.621,147.716 104.5,145.5C 105.75,145.423 106.583,144.756 107,143.5C 113.333,128.833 119.667,114.167 126,99.5C 129.123,93.7464 133.289,88.9131 138.5,85C 144.917,83.4037 148.751,85.9037 150,92.5C 150.667,97.5 150.667,102.5 150,107.5C 143.827,126.496 135.994,144.829 126.5,162.5 Z"/></g>
<g><path style="opacity:1" fill="#ec9b98" d="M 401.5,88.5 C 397.382,89.7089 393.049,90.3755 388.5,90.5C 392.401,87.4689 396.734,86.8023 401.5,88.5 Z"/></g>
<g><path style="opacity:1" fill="#442d0f" d="M 401.5,88.5 C 428.902,88.6052 445.735,101.939 452,128.5C 453.833,139.333 449.333,143.833 438.5,142C 434.875,136.585 431.375,131.085 428,125.5C 426.242,123.235 424.075,121.568 421.5,120.5C 421.144,119.13 420.31,118.13 419,117.5C 410.776,114.069 402.61,113.736 394.5,116.5C 382.359,119.715 370.692,124.215 359.5,130C 347.895,132.727 343.061,128.227 345,116.5C 357.625,104.608 372.125,95.9412 388.5,90.5C 393.049,90.3755 397.382,89.7089 401.5,88.5 Z"/></g>
<g><path style="opacity:0.987" fill="#fda4a6" d="M 421.5,120.5 C 425.11,131.05 429.777,141.05 435.5,150.5C 433.798,154.164 434.798,156.997 438.5,159C 450.656,161.645 461.989,159.645 472.5,153C 484.79,141.688 498.79,133.188 514.5,127.5C 503.487,149.692 491.821,171.526 479.5,193C 482.476,200.761 485.142,208.594 487.5,216.5C 478.616,216.999 469.949,215.999 461.5,213.5C 452.461,185.461 434.795,164.794 408.5,151.5C 403.553,139.94 398.886,128.273 394.5,116.5C 402.61,113.736 410.776,114.069 419,117.5C 420.31,118.13 421.144,119.13 421.5,120.5 Z"/></g>
<g><path style="opacity:0.996" fill="#fd7f89" d="M 518.5,115.5 C 519.77,120.356 518.437,124.356 514.5,127.5C 498.79,133.188 484.79,141.688 472.5,153C 461.989,159.645 450.656,161.645 438.5,159C 434.798,156.997 433.798,154.164 435.5,150.5C 441.94,149.427 448.273,147.927 454.5,146C 468.231,136.606 482.231,127.606 496.5,119C 503.574,116.219 510.907,115.052 518.5,115.5 Z"/></g>
<g><path style="opacity:0.998" fill="#fd7e88" d="M 104.5,145.5 C 106.621,147.716 106.954,150.216 105.5,153C 99.5524,156.256 93.2191,157.589 86.5,157C 70.4444,150.139 54.7777,142.472 39.5,134C 32.8466,131.726 26.1799,129.56 19.5,127.5C 16.5926,125.685 15.2593,123.019 15.5,119.5C 24.0359,117.022 32.7026,116.856 41.5,119C 57.8424,125.338 73.5091,133.005 88.5,142C 93.7719,143.488 99.1053,144.654 104.5,145.5 Z"/></g>
<g><path style="opacity:0.959" fill="#434342" d="M 408.5,151.5 C 434.795,164.794 452.461,185.461 461.5,213.5C 461.244,215.792 461.577,217.959 462.5,220C 470.187,220.268 477.853,220.768 485.5,221.5C 486.726,221.48 487.726,221.147 488.5,220.5C 501.791,223.743 506.958,232.077 504,245.5C 502.389,248.938 500.223,251.938 497.5,254.5C 492.552,255.724 487.552,256.891 482.5,258C 481.549,261.057 481.216,264.223 481.5,267.5C 488.627,268.294 492.293,272.294 492.5,279.5C 492.304,286.194 488.971,290.361 482.5,292C 481.275,294.629 481.608,297.129 483.5,299.5C 492.096,303.366 494.596,309.699 491,318.5C 488.654,321.505 485.654,323.505 482,324.5C 481.503,326.81 481.337,329.143 481.5,331.5C 488.627,332.294 492.293,336.294 492.5,343.5C 492.132,350.368 488.632,354.701 482,356.5C 481.666,358.847 481.833,361.181 482.5,363.5C 485.905,364.038 488.905,365.371 491.5,367.5C 493.484,371.885 493.817,376.385 492.5,381C 489.611,384.713 486.611,388.213 483.5,391.5C 485.731,394.237 488.231,396.904 491,399.5C 494.372,405.335 494.039,411.002 490,416.5C 488.681,418.487 486.848,419.654 484.5,420C 483.424,421.726 483.257,423.559 484,425.5C 494.087,431.415 496.087,439.415 490,449.5C 487.304,450.585 485.137,452.251 483.5,454.5C 485.71,458.222 488.543,461.555 492,464.5C 495.187,473.281 492.687,479.781 484.5,484C 483.424,485.726 483.257,487.559 484,489.5C 495.284,496.609 496.451,505.109 487.5,515C 477.677,519.392 470.844,516.559 467,506.5C 466.333,504.167 466.333,501.833 467,499.5C 469.828,495.014 472.995,490.848 476.5,487C 473.633,483.955 470.799,480.788 468,477.5C 464.885,468.674 467.385,462.007 475.5,457.5C 476.348,455.591 476.682,453.591 476.5,451.5C 471.228,450.728 468.061,447.728 467,442.5C 466.068,434.695 469.068,429.028 476,425.5C 477.45,421.276 475.95,418.776 471.5,418C 469.536,416.549 468.203,414.716 467.5,412.5C 465.537,404.756 468.203,399.089 475.5,395.5C 476.647,393.235 476.814,390.902 476,388.5C 472.667,386.5 470,383.833 468,380.5C 465.623,372.594 468.123,366.928 475.5,363.5C 476.647,361.235 476.814,358.902 476,356.5C 473.667,354.5 471.333,352.5 469,350.5C 465.346,342.034 467.512,335.7 475.5,331.5C 477.716,326.669 476.383,323.502 471.5,322C 465.135,313.072 466.468,305.572 475.5,299.5C 476.647,297.235 476.814,294.902 476,292.5C 473.667,290.5 471.333,288.5 469,286.5C 467.466,282.289 467.133,277.956 468,273.5C 471.2,270.562 474.033,267.562 476.5,264.5C 477.468,262.393 477.802,260.059 477.5,257.5C 473.298,257.183 469.298,257.517 465.5,258.5C 463.856,258.286 462.356,258.62 461,259.5C 458.204,266.88 455.204,274.213 452,281.5C 425.883,323.122 388.716,338.122 340.5,326.5C 334.978,323.154 329.145,320.154 323,317.5C 318.556,314.695 314.39,311.529 310.5,308C 309.423,307.53 308.423,307.697 307.5,308.5C 307.291,307.078 306.791,305.745 306,304.5C 302.237,301.127 299.07,297.294 296.5,293C 294.19,292.503 291.857,292.337 289.5,292.5C 290.568,291.566 291.901,291.232 293.5,291.5C 288.381,282.256 284.048,272.589 280.5,262.5C 273.289,235.423 277.123,210.09 292,186.5C 322.145,146.417 360.978,134.75 408.5,151.5 Z M 474.5,400.5 C 476.175,402.002 478.008,403.335 480,404.5C 484.127,399.334 486.627,400.334 487.5,407.5C 487.033,410.148 485.866,412.481 484,414.5C 481.46,411.345 478.793,411.011 476,413.5C 472.004,409.534 471.504,405.201 474.5,400.5 Z M 483.5,432.5 C 488.614,436.897 488.781,441.564 484,446.5C 482.005,444.253 479.505,443.253 476.5,443.5C 476.649,444.552 476.483,445.552 476,446.5C 471.742,442.148 471.576,437.815 475.5,433.5C 478.795,437.506 481.462,437.172 483.5,432.5 Z M 474.5,464.5 C 476.175,466.002 478.008,467.335 480,468.5C 482,467.833 483.333,466.5 484,464.5C 488.667,468.833 488.667,473.167 484,477.5C 482.559,476.74 481.059,476.074 479.5,475.5C 477.031,477.007 474.865,476.673 473,474.5C 472.309,470.979 472.809,467.645 474.5,464.5 Z M 474.5,496.5 C 476.104,497.287 476.771,498.62 476.5,500.5C 480.182,501.275 482.682,499.941 484,496.5C 489.209,502.319 488.376,506.986 481.5,510.5C 472.393,509.406 470.059,504.739 474.5,496.5 Z"/></g>
<g><path style="opacity:1" fill="#452d0f" d="M 117.5,176.5 C 119.989,171.527 122.989,166.86 126.5,162.5C 133.562,156.082 141.895,152.249 151.5,151C 166.713,151.135 181.38,154.135 195.5,160C 202.488,161.066 209.488,162.066 216.5,163C 221.818,166.622 223.318,171.456 221,177.5C 215.726,180.981 209.893,182.981 203.5,183.5C 192.408,182.238 181.408,180.405 170.5,178C 163.5,177.333 156.5,177.333 149.5,178C 146.217,179.561 143.383,181.727 141,184.5C 137.2,191.228 133.034,197.728 128.5,204C 126.466,205.006 124.3,205.506 122,205.5C 117.632,205.802 114.965,203.802 114,199.5C 113.397,191.575 114.564,183.908 117.5,176.5 Z"/></g>
<g><path style="opacity:1" fill="#e3cdbc" d="M 338.5,308.5 C 337.337,299.507 333.503,291.84 327,285.5C 318.939,277.388 309.439,271.721 298.5,268.5C 284.421,229.734 293.421,197.567 325.5,172C 350.12,158.052 375.787,155.718 402.5,165C 438.46,184.087 453.293,213.92 447,254.5C 433.145,298.699 402.979,318.866 356.5,315C 350.364,313.135 344.364,310.969 338.5,308.5 Z"/></g>
<g><path style="opacity:1" fill="#fcfbf9" d="M 360.5,164.5 C 386.327,162.973 407.827,171.639 425,190.5C 433.817,203.098 437.65,217.098 436.5,232.5C 435.167,232.5 433.833,232.5 432.5,232.5C 427.138,195.974 405.972,177.308 369,176.5C 334.008,177.821 313.674,195.821 308,230.5C 306.989,231.337 305.822,231.67 304.5,231.5C 303.715,207.236 313.382,188.402 333.5,175C 342.335,170.783 351.335,167.283 360.5,164.5 Z"/></g>
<g><path style="opacity:0.981" fill="#f1c4a8" d="M 461.5,213.5 C 469.949,215.999 478.616,216.999 487.5,216.5C 487.833,217.833 488.167,219.167 488.5,220.5C 487.726,221.147 486.726,221.48 485.5,221.5C 477.853,220.768 470.187,220.268 462.5,220C 461.577,217.959 461.244,215.792 461.5,213.5 Z"/></g>
<g><path style="opacity:1" fill="#442c0f" d="M 153.5,219.5 C 175.369,218.535 186.369,229.035 186.5,251C 184.847,276.335 171.847,285.668 147.5,279C 134.565,268.412 130.399,254.912 135,238.5C 138.687,229.647 144.854,223.314 153.5,219.5 Z"/></g>
<g><path style="opacity:1" fill="#887c6d" d="M 358.5,221.5 C 376.105,219.21 387.272,226.543 392,243.5C 393.914,255.775 391.081,266.775 383.5,276.5C 361.553,289.784 346.719,284.117 339,259.5C 336.375,241.741 342.875,229.074 358.5,221.5 Z"/></g>
<g><path style="opacity:1" fill="#f4cbaa" d="M 473.5,225.5 C 488.377,223.542 494.544,229.875 492,244.5C 490.878,246.624 489.378,248.457 487.5,250C 479.587,253.204 472.754,251.704 467,245.5C 464.476,237.241 466.642,230.574 473.5,225.5 Z"/></g>
<g><path style="opacity:1" fill="#855e21" d="M 150.5,231.5 C 160.971,231.082 163.971,235.748 159.5,245.5C 155.582,248.653 151.249,249.319 146.5,247.5C 145.588,243.869 145.421,240.203 146,236.5C 147.025,234.313 148.525,232.646 150.5,231.5 Z"/></g>
<g><path style="opacity:1" fill="#a89477" d="M 355.5,232.5 C 368.802,233.702 371.135,239.536 362.5,250C 353.135,252.263 349.302,248.763 351,239.5C 352.511,237.138 354.011,234.805 355.5,232.5 Z"/></g>
<g><path style="opacity:0.949" fill="#f7ccab" d="M 497.5,254.5 C 505.563,292.709 503.563,330.376 491.5,367.5C 488.905,365.371 485.905,364.038 482.5,363.5C 481.833,361.181 481.666,358.847 482,356.5C 488.632,354.701 492.132,350.368 492.5,343.5C 492.293,336.294 488.627,332.294 481.5,331.5C 481.337,329.143 481.503,326.81 482,324.5C 485.654,323.505 488.654,321.505 491,318.5C 494.596,309.699 492.096,303.366 483.5,299.5C 481.608,297.129 481.275,294.629 482.5,292C 488.971,290.361 492.304,286.194 492.5,279.5C 492.293,272.294 488.627,268.294 481.5,267.5C 481.216,264.223 481.549,261.057 482.5,258C 487.552,256.891 492.552,255.724 497.5,254.5 Z"/></g>
<g><path style="opacity:0.988" fill="#968272" d="M 465.5,258.5 C 469.298,257.517 473.298,257.183 477.5,257.5C 477.802,260.059 477.468,262.393 476.5,264.5C 476.5,262.5 476.5,260.5 476.5,258.5C 472.833,258.5 469.167,258.5 465.5,258.5 Z"/></g>
<g><path style="opacity:1" fill="#f97c82" d="M 280.5,262.5 C 284.048,272.589 288.381,282.256 293.5,291.5C 291.901,291.232 290.568,291.566 289.5,292.5C 287.284,293.203 285.451,294.536 284,296.5C 282.091,300.315 280.758,304.315 280,308.5C 279.199,320.202 279.532,331.868 281,343.5C 283.174,352.173 288.674,355.673 297.5,354C 299.624,352.878 301.457,351.378 303,349.5C 306.915,339.247 308.748,328.581 308.5,317.5C 308.456,314.415 308.122,311.415 307.5,308.5C 308.423,307.697 309.423,307.53 310.5,308C 314.39,311.529 318.556,314.695 323,317.5C 329.145,320.154 334.978,323.154 340.5,326.5C 341.03,335.91 338.363,344.243 332.5,351.5C 326.572,355.81 320.572,360.144 314.5,364.5C 297.343,372.064 279.343,375.397 260.5,374.5C 242.274,375.039 224.94,371.706 208.5,364.5C 203.158,362.158 198.492,358.825 194.5,354.5C 190.913,349.665 188.08,344.332 186,338.5C 182.108,322.298 184.775,307.298 194,293.5C 217.096,267.551 245.929,257.217 280.5,262.5 Z"/></g>
<g><path style="opacity:1" fill="#dba0a3" d="M 298.5,268.5 C 309.439,271.721 318.939,277.388 327,285.5C 333.503,291.84 337.337,299.507 338.5,308.5C 320.167,300.167 306.833,286.833 298.5,268.5 Z"/></g>
<g><path style="opacity:1" fill="#eec6a6" d="M 473.5,272.5 C 477.479,273.447 481.479,273.614 485.5,273C 489.466,277.464 489.466,281.964 485.5,286.5C 483.126,287.677 481.293,287.01 480,284.5C 476.97,287.383 474.303,287.05 472,283.5C 471.116,279.567 471.616,275.901 473.5,272.5 Z"/></g>
<g><path style="opacity:1" fill="#2f2f31" d="M 230.5,290.5 C 239.342,289.499 245.175,293.166 248,301.5C 248.827,314.534 248.493,327.534 247,340.5C 243.037,352.708 235.704,355.375 225,348.5C 223.667,345.167 222.333,341.833 221,338.5C 220.333,327.833 220.333,317.167 221,306.5C 221.954,299.743 225.121,294.409 230.5,290.5 Z"/></g>
<g><path style="opacity:0.999" fill="#2e2f31" d="M 289.5,292.5 C 291.857,292.337 294.19,292.503 296.5,293C 299.07,297.294 302.237,301.127 306,304.5C 306.791,305.745 307.291,307.078 307.5,308.5C 308.122,311.415 308.456,314.415 308.5,317.5C 308.748,328.581 306.915,339.247 303,349.5C 301.457,351.378 299.624,352.878 297.5,354C 288.674,355.673 283.174,352.173 281,343.5C 279.532,331.868 279.199,320.202 280,308.5C 280.758,304.315 282.091,300.315 284,296.5C 285.451,294.536 287.284,293.203 289.5,292.5 Z"/></g>
<g><path style="opacity:1" fill="#ebc3a4" d="M 473.5,304.5 C 475.929,304.585 477.929,305.585 479.5,307.5C 482.173,303.751 485.006,303.751 488,307.5C 489.297,312.117 488.13,315.95 484.5,319C 482.612,318.873 480.946,318.04 479.5,316.5C 477.912,317.01 476.745,318.01 476,319.5C 470.95,315.338 470.117,310.338 473.5,304.5 Z"/></g>
<g><path style="opacity:1" fill="#ecc4a5" d="M 481.5,335.5 C 489.24,338.378 490.574,343.212 485.5,350C 483.621,350.063 481.787,349.563 480,348.5C 475.004,351.545 472.17,350.045 471.5,344C 471.408,341.186 472.408,338.853 474.5,337C 476.582,337.932 478.915,338.432 481.5,338.5C 481.5,337.5 481.5,336.5 481.5,335.5 Z"/></g>
<g><path style="opacity:1" fill="#262524" d="M 194.5,354.5 C 198.492,358.825 203.158,362.158 208.5,364.5C 192.679,363.369 177.012,360.202 161.5,355C 151.407,353.929 146.074,358.429 145.5,368.5C 146.298,373.142 146.964,377.808 147.5,382.5C 145.19,379.898 143.357,376.898 142,373.5C 135.598,358.976 139.932,349.643 155,345.5C 168.438,347.553 181.605,350.553 194.5,354.5 Z"/></g>
<g><path style="opacity:1" fill="#242425" d="M 375.5,382.5 C 375.303,375.684 375.136,368.684 375,361.5C 370.47,355.829 364.637,353.996 357.5,356C 343.275,360.652 328.942,363.486 314.5,364.5C 320.572,360.144 326.572,355.81 332.5,351.5C 343.219,349.821 353.886,347.821 364.5,345.5C 372.091,345.379 377.591,348.712 381,355.5C 382.918,365.313 381.085,374.313 375.5,382.5 Z"/></g>
<g><path style="opacity:1" fill="#422b0d" d="M 208.5,364.5 C 224.94,371.706 242.274,375.039 260.5,374.5C 279.343,375.397 297.343,372.064 314.5,364.5C 328.942,363.486 343.275,360.652 357.5,356C 364.637,353.996 370.47,355.829 375,361.5C 375.136,368.684 375.303,375.684 375.5,382.5C 371.343,388.137 367.176,393.804 363,399.5C 349.436,415.698 332.603,427.031 312.5,433.5C 293.962,414.936 271.629,408.103 245.5,413C 234.341,415.414 224.008,419.747 214.5,426C 211.961,428.37 209.628,430.87 207.5,433.5C 181.331,423.657 161.331,406.657 147.5,382.5C 146.964,377.808 146.298,373.142 145.5,368.5C 146.074,358.429 151.407,353.929 161.5,355C 177.012,360.202 192.679,363.369 208.5,364.5 Z"/></g>
<g><path style="opacity:1" fill="#e8c1a2" d="M 487.5,377.5 C 486.255,379.642 484.755,381.642 483,383.5C 481.832,382.491 480.665,381.491 479.5,380.5C 476.658,383.283 474.158,382.95 472,379.5C 470.802,375.191 471.802,371.524 475,368.5C 478.252,371.45 481.085,371.117 483.5,367.5C 487.648,369.785 488.981,373.119 487.5,377.5 Z"/></g>
<g><path style="opacity:1" fill="#e9766f" d="M 312.5,433.5 C 277.526,445.456 242.526,445.456 207.5,433.5C 209.628,430.87 211.961,428.37 214.5,426C 224.008,419.747 234.341,415.414 245.5,413C 271.629,408.103 293.962,414.936 312.5,433.5 Z"/></g>
</svg>
